<?xml version="1.0" encoding="UTF-8"?>
<svg width="24px" height="24px" viewBox="0 0 24 24" version="1.1" xmlns="http://www.w3.org/2000/svg" xmlns:xlink="http://www.w3.org/1999/xlink">
    <title>编组 18</title>
    <defs>
        <filter id="filter-1">
            <feColorMatrix in="SourceGraphic" type="matrix" values="0 0 0 0 0.000000 0 0 0 0 0.000000 0 0 0 0 0.000000 0 0 0 1.000000 0"></feColorMatrix>
        </filter>
    </defs>
    <g id="·分享" stroke="none" stroke-width="1" fill="none" fill-rule="evenodd">
        <g id="编组-18">
            <rect id="矩形" x="0" y="0" width="24" height="24"></rect>
            <g filter="url(#filter-1)" id="00图标/96px/分享/复制链接" stroke-linecap="round">
                <g transform="translate(4.802750, 4.627311)">
                    <path d="M4.53058339,3.22512295 C4.53058339,2.68166134 4.53058339,3.24613414 4.53058339,2.52584347 C4.53058339,0.968499069 5.74020003,-0.29397801 7.23233778,-0.29397801 C8.72447552,-0.29397801 9.93409217,0.968499069 9.93409217,2.52584347 L9.93409217,5.8412089 C9.93409217,7.3985533 8.72447552,8.66103038 7.23233778,8.66103038 M9.93409217,11.2395526 C9.93409217,11.7830142 9.93409217,11.2185414 9.93409217,11.9388321 C9.93409217,13.4961765 8.72447552,14.7586536 7.23233778,14.7586536 C5.74020003,14.7586536 4.53058339,13.4961765 4.53058339,11.9388321 L4.53058339,8.62346666 C4.53058339,7.06612226 5.74020003,5.80364518 7.23233778,5.80364518" id="Shape" stroke="#FFFFFF" stroke-width="1.66666667" transform="translate(7.232338, 7.232338) rotate(45.000000) translate(-7.232338, -7.232338) "></path>
                </g>
            </g>
        </g>
    </g>
</svg>