<?xml version="1.0" encoding="UTF-8"?>
<svg width="16px" height="16px" viewBox="0 0 16 16" version="1.1" xmlns="http://www.w3.org/2000/svg" xmlns:xlink="http://www.w3.org/1999/xlink">
    <!-- Generator: Sketch 51 (57462) - http://www.bohemiancoding.com/sketch -->
    <title>emoji/火箭</title>
    <desc>Created with Sketch.</desc>
    <defs>
        <path d="M14.8059772,2.56197767 C14.6919665,3.57318881 14.4572778,4.5580231 14.1043624,5.51733368 C13.4785244,7.21386396 12.7200611,8.54710704 10.8017951,10.3017951 C8.88272989,12.0572823 5.62169209,12.4617099 4.80496108,11.9582509 C4.55129957,11.800489 4.32216923,11.6033252 4.11144663,11.3894059 C3.89670123,11.1778572 3.69953742,10.9487268 3.54177549,10.6950653 C3.03749031,9.87750814 3.41525951,6.58981193 5.17157288,4.67157288 C6.92626093,2.75330684 8.28533627,2.02067587 9.98269271,1.39566403 C10.9420033,1.04274863 11.9276637,0.808886016 12.9380487,0.694049212 C13.4464918,0.636684787 13.9595515,0.612706783 14.4679991,0.702392853 C14.6024519,0.726561132 14.6733825,0.741550296 14.7179407,0.782911845 C14.7584761,0.826643896 14.7734652,0.897574485 14.7976335,1.03202729 C14.8864934,1.53964872 14.8625154,2.05270839 14.8059772,2.56197767 Z" id="path-1"></path>
    </defs>
    <g id="emoji/火箭" stroke="none" stroke-width="1" fill="none" fill-rule="evenodd">
        <path d="M4.37881194,13.1418957 C4.68340362,13.2606739 4.76659796,13.5559761 4.55634207,13.768183 C4.24626662,14.0821605 3.93053619,14.3939889 3.61958427,14.7088429 C3.51615976,14.8122674 3.399529,14.8586617 3.24371986,14.7940063 C3.08410772,14.7273009 3.00388858,14.6085167 2.98688972,14.4460224 C2.97676371,14.3429896 2.97414468,14.242205 2.96587066,14.1392712 C2.95216488,13.9520226 2.95021387,13.9500716 2.78007358,13.9972981 C2.41621234,14.0997236 2.05342562,14.2049765 1.69141636,14.3075011 C1.58403075,14.3368461 1.47467936,14.3466959 1.36497179,14.2808122 C1.20367618,14.1826231 1.13599529,14.0220355 1.18856488,13.8309439 C1.2913717,13.4569463 1.40080902,13.0860732 1.50469038,12.714903 C1.55231295,12.5521707 1.54841092,12.5482687 1.36954579,12.5359345 C1.26300711,12.5293144 1.15569099,12.5254228 1.04895426,12.5150987 C0.892015868,12.498397 0.775960127,12.4174004 0.711601866,12.2671472 C0.646466153,12.1196225 0.67774748,11.9966435 0.77581408,11.8966259 C1.10088869,11.5696003 1.42791432,11.2445257 1.75396444,10.9184756 C1.81970035,10.8527396 1.89823165,10.8190816 1.98849857,10.8322184 C2.17564812,10.8440722 2.28381555,10.9329571 2.36068688,11.1272766 C2.66279954,11.8904171 3.17276626,12.4827728 3.88600657,12.9050222 C4.04427663,12.9984328 4.20818691,13.0764482 4.37881194,13.1418957 Z" id="Fill-1" fill="#FFD48D"></path>
        <path d="M6.13081932,3.67507633 C6.18942198,3.68273211 6.23636503,3.67554411 6.27986643,3.65854609 C5.52924756,4.65763408 4.52344163,6.33927602 3.95518602,8.71638685 C3.1635202,8.66822704 2.37096177,8.61599045 1.57897409,8.55158788 C0.919541877,8.49874194 0.563173148,7.80325805 0.895136732,7.22613826 C1.12904304,6.82161649 1.37935302,6.42553795 1.62064903,6.02522171 C1.88165305,5.59525868 2.14096843,5.16201492 2.40197245,4.7320519 C2.88074517,3.943521 3.59326556,3.52088125 4.52521341,3.51986438 C5.05854649,3.51825523 5.5962632,3.61496302 6.13081932,3.67507633 Z" id="Fill-7" fill="#9AC9FF"></path>
        <path d="M11.8247453,9.36900231 C11.8848216,9.90352141 11.9814899,10.4411986 11.9798476,10.9744986 C11.9787728,11.9063885 11.5569432,12.619719 10.7676034,13.0976829 C10.3376509,13.3586974 9.90441798,13.6180236 9.47446547,13.8790381 C9.07415912,14.120344 8.67808965,14.3706631 8.2735785,14.60458 C7.69647398,14.9365589 7.00105556,14.5802556 6.94908208,13.9216959 C6.88390469,13.1289334 6.83172069,12.3364275 6.78361315,11.544814 C9.16143951,10.9772739 10.8430394,9.97142591 11.8412838,9.21996344 C11.8242841,9.26346319 11.8179218,9.3112319 11.8247453,9.36900231 Z" id="Fill-9" fill="#9AC9FF"></path>
        <mask id="mask-2" fill="white">
            <use xlink:href="#path-1"></use>
        </mask>
        <use id="Mask" fill="#E2EEFF" xlink:href="#path-1"></use>
        <path d="M11.8890873,3.6109127 C9.54594155,1.26776695 9.70423279,-2.68951417 12.2426407,-5.22792206 C14.7810486,-7.76632996 18.7383297,-7.9246212 21.0814755,-5.58147545 C23.4246212,-3.2383297 23.26633,0.718951417 20.7279221,3.25735931 C18.1895142,5.79576721 14.232233,5.95405845 11.8890873,3.6109127 Z" id="Oval-2" fill="#FF8585" mask="url(#mask-2)"></path>
        <path d="M7.64644661,7.85355339 C6.86539803,7.07250481 6.86539803,5.80617485 7.64644661,5.02512627 C8.42749519,4.24407768 9.69382515,4.24407768 10.4748737,5.02512627 C11.2559223,5.80617485 11.2559223,7.07250481 10.4748737,7.85355339 C9.69382515,8.63460197 8.42749519,8.63460197 7.64644661,7.85355339 Z" id="Oval-3" fill="#C4DAFF" mask="url(#mask-2)"></path>
    </g>
</svg>